<?xml version="1.0" encoding="utf-8"?>
<!-- Generator: Adobe Illustrator 21.0.0, SVG Export Plug-In . SVG Version: 6.00 Build 0)  -->
<svg version="1.1" id="Слой_1" xmlns="http://www.w3.org/2000/svg" xmlns:xlink="http://www.w3.org/1999/xlink" x="0px" y="0px"
	 viewBox="0 0 100 125" style="enable-background:new 0 0 100 125;" xml:space="preserve">
<style type="text/css">
	.st0{fill:none;stroke:#000000;stroke-width:4;stroke-miterlimit:10;}
</style>
<circle class="st0" cx="31.6" cy="19.3" r="7.6"/>
<rect x="20.3" y="98" class="st0" width="33.6" height="11.3"/>
<line class="st0" x1="7.9" y1="109.3" x2="63.9" y2="109.3"/>
<path class="st0" d="M29.9,90.2c0,0-6.9-22.4-6.9-24.5c0-2.1,2.1-10.3,2.1-10.3l-2.1-6.2c0,0-2.4-7.5-2.7-8.8
	c-0.3-1.2-0.3-4.1,2.7-6.3s4.5-3.6,6.9-2.5s8.3-0.4,8.3-0.4s2.1-0.5,3,1.6c0.9,2.1,6.6,17.6,6.9,20.9s-3.6,1.8-3.3,5.1
	c0.3,3.3,6.3,22.4,3.3,23.3c-3,0.9-4.8,0.7-5.1,3.6S44,96.9,44,96.9H26.7L29.9,90.2z"/>
<line class="st0" x1="0.5" y1="116" x2="71.2" y2="116"/>
<path d="M99.5,16C99.5,16,99.4,16,99.5,16c-1.5,0-2.3-0.9-3.5-2.4c-1.3-1.7-2.9-3.7-6.2-3.7c-3.2,0-4.8,2.1-6.2,3.7
	c-1.2,1.5-2,2.4-3.5,2.4c-1.5,0-2.3-0.9-3.5-2.4c-1.3-1.7-2.9-3.7-6.2-3.7s-4.8,2.1-6.2,3.7c-1.2,1.5-2,2.4-3.5,2.4
	c-1.5,0-2.3-0.9-3.5-2.4c-1.3-1.7-2.9-3.7-6.2-3.7v3.3c1.5,0,2.3,0.9,3.5,2.4c1.3,1.7,2.9,3.7,6.2,3.7s4.8-2.1,6.2-3.7
	c1.2-1.5,2-2.4,3.5-2.4c1.5,0,2.3,0.9,3.5,2.4c1.3,1.7,2.9,3.7,6.2,3.7c3.2,0,4.8-2.1,6.2-3.7c1.2-1.5,2-2.4,3.5-2.4
	s2.3,0.9,3.5,2.4c1.3,1.7,2.9,3.7,6.2,3.7c0,0,0,0,0,0V16z"/>
<path d="M99.5,26C99.5,26,99.4,26,99.5,26c-1.5,0-2.3-0.9-3.5-2.4c-1.3-1.7-2.9-3.7-6.2-3.7c-3.2,0-4.8,2.1-6.2,3.7
	c-1.2,1.5-2,2.4-3.5,2.4c-1.5,0-2.3-0.9-3.5-2.4c-1.3-1.7-2.9-3.7-6.2-3.7s-4.8,2.1-6.2,3.7c-1.2,1.5-2,2.4-3.5,2.4
	c-1.5,0-2.3-0.9-3.5-2.4c-1.3-1.7-2.9-3.7-6.2-3.7v3.3c1.5,0,2.3,0.9,3.5,2.4c1.3,1.7,2.9,3.7,6.2,3.7s4.8-2.1,6.2-3.7
	c1.2-1.5,2-2.4,3.5-2.4c1.5,0,2.3,0.9,3.5,2.4c1.3,1.7,2.9,3.7,6.2,3.7c3.2,0,4.8-2.1,6.2-3.7c1.2-1.5,2-2.4,3.5-2.4
	s2.3,0.9,3.5,2.4c1.3,1.7,2.9,3.7,6.2,3.7c0,0,0,0,0,0V26z"/>
<path d="M99.5,36C99.5,36,99.4,36,99.5,36c-1.5,0-2.3-0.9-3.5-2.4c-1.3-1.7-2.9-3.7-6.2-3.7c-3.2,0-4.8,2.1-6.2,3.7
	c-1.2,1.5-2,2.4-3.5,2.4c-1.5,0-2.3-0.9-3.5-2.4c-1.3-1.7-2.9-3.7-6.2-3.7s-4.8,2.1-6.2,3.7c-1.2,1.5-2,2.4-3.5,2.4
	c-1.5,0-2.3-0.9-3.5-2.4c-1.3-1.7-2.9-3.7-6.2-3.7v3.3c1.5,0,2.3,0.9,3.5,2.4c1.3,1.7,2.9,3.7,6.2,3.7s4.8-2.1,6.2-3.7
	c1.2-1.5,2-2.4,3.5-2.4c1.5,0,2.3,0.9,3.5,2.4c1.3,1.7,2.9,3.7,6.2,3.7c3.2,0,4.8-2.1,6.2-3.7c1.2-1.5,2-2.4,3.5-2.4
	s2.3,0.9,3.5,2.4c1.3,1.7,2.9,3.7,6.2,3.7c0,0,0,0,0,0V36z"/>
</svg>
