<?xml version="1.0" encoding="utf-8"?>
<!-- Generator: Adobe Illustrator 21.0.0, SVG Export Plug-In . SVG Version: 6.00 Build 0)  -->
<svg version="1.1" id="Слой_1" xmlns="http://www.w3.org/2000/svg" xmlns:xlink="http://www.w3.org/1999/xlink" x="0px" y="0px"
	 viewBox="0 0 428.7 179.3" style="enable-background:new 0 0 428.7 179.3;" xml:space="preserve">
<style type="text/css">
	.st0{fill:#333333;}
	.st1{fill:url(#SVGID_1_);}
	.st2{fill:url(#SVGID_2_);}
	.st3{font-family:'Ubuntu';}
	.st4{font-size:25.3251px;}
</style>
<g>
	<path class="st0" d="M68.8,82.5c3.6,3.2,5.3,7.5,5.3,13c0,6.5-1.9,11.5-5.8,15c-3.9,3.5-9.4,5.2-16.6,5.2h-16l-1.5,19
		c-0.1,1.7-0.7,3.1-1.8,4.1c-1.1,1-2.5,1.5-4.3,1.5c-1.7,0-3-0.5-4-1.5c-0.9-1-1.4-2.4-1.2-4.2L27,83.1c0.1-1.6,0.7-2.9,1.7-3.9
		c1-0.9,2.3-1.4,4.1-1.4h21C60.2,77.8,65.3,79.4,68.8,82.5z M63.4,96.1c0-6.3-3.7-9.5-11-9.5H38L36.4,107h14.4
		C59.2,107,63.4,103.4,63.4,96.1z"/>
	<path class="st0" d="M81.3,139.1c-1-0.9-1.4-2.2-1.3-4l2.8-34.1c0.1-1.7,0.7-3,1.8-3.8c1.1-0.9,2.5-1.3,4-1.3
		c1.6,0,2.9,0.4,3.8,1.3c1,0.9,1.4,2.1,1.3,3.8L91,135.1c-0.1,1.8-0.7,3.1-1.8,4c-1.1,0.9-2.4,1.3-4,1.3
		C83.6,140.4,82.3,140,81.3,139.1z"/>
	<path class="st0" d="M111.6,138c-3.3-1.7-5.8-4.2-7.6-7.4c-1.8-3.2-2.7-6.8-2.7-11c0-4.8,0.9-9,2.8-12.6c1.9-3.6,4.6-6.4,8.1-8.3
		c3.5-1.9,7.7-2.9,12.4-2.9c2.8,0,5.5,0.3,8,1c2.5,0.7,4.5,1.6,6.1,2.7c1.3,0.8,1.9,2.1,1.9,3.9c0,1.2-0.3,2.3-1,3.2
		c-0.7,0.9-1.5,1.4-2.6,1.4c-0.6,0-1.2-0.2-1.9-0.5c-3.2-2-6.5-3-10-3c-3.9,0-7,1.3-9.2,4c-2.2,2.6-3.3,6.3-3.3,11.1
		c0,3.9,1,7,2.9,9.2c2,2.2,4.7,3.3,8.2,3.3c1.8,0,3.4-0.2,4.8-0.7c1.5-0.5,3-1.2,4.7-2.2c0.8-0.4,1.5-0.6,2.1-0.6
		c1,0,1.8,0.4,2.4,1.1c0.6,0.8,0.9,1.7,0.9,2.7c0,0.8-0.2,1.5-0.5,2.2c-0.4,0.7-0.9,1.4-1.6,1.9c-1.6,1.2-3.7,2.2-6.2,3
		c-2.5,0.8-5,1.1-7.5,1.1C118.7,140.6,114.9,139.7,111.6,138z"/>
	<path class="st0" d="M183.2,132c0.8,0.9,1.2,1.9,1.2,3c0,1.4-0.6,2.7-1.7,3.8c-1.1,1.1-2.4,1.7-3.8,1.7c-1.3,0-2.5-0.6-3.5-1.7
		l-17.8-18.6l-1.1,15c-0.1,1.6-0.7,2.9-1.8,3.8c-1.1,0.9-2.4,1.3-4,1.3c-1.6,0-2.9-0.5-3.9-1.4c-1-0.9-1.4-2.2-1.3-3.9l4.1-52.6
		c0.1-1.6,0.7-2.9,1.8-3.8c1.1-0.9,2.4-1.3,4-1.3c1.6,0,2.9,0.5,3.9,1.4c1,0.9,1.4,2.2,1.3,3.9l-2.6,32.9l19.2-18
		c1.2-1.1,2.3-1.6,3.5-1.6c1.3,0,2.5,0.5,3.5,1.5c1,1,1.5,2.1,1.5,3.4c0,1.3-0.5,2.4-1.6,3.4l-14.7,13.3L183.2,132z"/>
	<g>
		<path class="st0" d="M240.1,125.9c-0.1,0.4-0.1,0.9-0.1,1.6c0,2.3,0.5,4.1,1.6,5.4c1.1,1.2,2.6,1.8,4.6,1.8c0.5,0,1.2,0,1.9-0.1
			c0.7-0.1,1.3-0.1,1.8-0.1c0.8,0,1.5,0.3,1.9,1c0.5,0.6,0.7,1.5,0.7,2.6c0,1.8-0.6,3.1-1.9,3.8c-1.3,0.7-3.6,1.1-6.8,1.1
			c-4.8,0-8.4-1.3-11-3.8c-2.6-2.5-3.9-6.1-3.9-10.7c0-1.1,0-1.8,0.1-2.4l1.4-18.5h-4.3c-1.5,0-2.6-0.3-3.4-1
			c-0.8-0.7-1.2-1.7-1.2-3c0-2.9,1.7-4.3,5.2-4.3h4.5l0.6-8.1c0.1-1.6,0.7-2.8,1.8-3.7c1.1-0.9,2.4-1.4,4.1-1.4c1.7,0,3,0.5,3.9,1.4
			c0.9,0.9,1.3,2.2,1.2,3.8l-0.6,8h7.4c1.5,0,2.6,0.3,3.4,1c0.8,0.7,1.2,1.6,1.2,2.9c0,2.9-1.7,4.4-5.1,4.4h-7.6L240.1,125.9z"/>
		<path class="st0" d="M258.9,141.5c-1-0.9-1.4-2.2-1.3-4l2.8-34.1c0.1-1.7,0.7-3,1.8-3.8c1.1-0.9,2.5-1.3,4-1.3
			c1.6,0,2.9,0.4,3.8,1.3c1,0.9,1.4,2.1,1.3,3.8l-2.8,34.1c-0.1,1.8-0.7,3.1-1.8,4c-1.1,0.9-2.4,1.3-4,1.3
			C261.2,142.8,259.9,142.4,258.9,141.5z"/>
		<path class="st0" d="M344,102c2.3,2.6,3.5,6.3,3.5,11.3c0,1.2,0,2.2-0.1,2.8l-1.7,21.4c-0.1,1.8-0.7,3.1-1.8,4
			c-1.1,0.9-2.5,1.3-4.1,1.3c-1.5,0-2.8-0.4-3.8-1.3c-1-0.9-1.4-2.2-1.3-4l1.7-21c0.1-0.4,0.1-1,0.1-1.8c0-5.2-2.3-7.8-6.8-7.8
			c-5.9,0-9.2,3.8-9.8,11.5l-1.6,19.1c-0.1,1.8-0.7,3.1-1.8,4c-1.1,0.9-2.4,1.3-4,1.3c-1.6,0-2.9-0.4-3.9-1.3c-1-0.9-1.4-2.2-1.3-4
			l1.8-21c0.2-3.3-0.2-5.7-1.3-7.3c-1.1-1.6-2.9-2.4-5.4-2.4c-5.9,0-9.2,3.8-9.9,11.5l-1.6,19.1c-0.1,1.8-0.7,3.1-1.8,4
			c-1.1,0.9-2.4,1.3-4,1.3c-1.6,0-2.9-0.4-3.9-1.3c-1-0.9-1.4-2.2-1.3-4l2.8-34.2c0.1-1.6,0.8-2.8,1.9-3.7c1.2-0.9,2.5-1.3,4-1.3
			c1.5,0,2.7,0.4,3.7,1.2c0.9,0.8,1.3,2,1.1,3.6l-0.1,1.4c3.1-4.3,7.5-6.4,13.2-6.4c3.1,0,5.7,0.6,7.8,1.9c2.1,1.3,3.7,3.2,4.7,5.6
			c1.6-2.5,3.7-4.3,6.3-5.6c2.5-1.3,5.3-1.9,8.5-1.9C338.3,98.2,341.7,99.5,344,102z"/>
		<path class="st0" d="M395.3,121.7c-0.7,0.7-1.5,1-2.6,1h-26.2c0.2,3.9,1.3,6.8,3.3,8.8c2,2,4.9,3,8.6,3c2.1,0,3.9-0.2,5.6-0.7
			c1.7-0.5,3.3-1.2,5-2.2c0.8-0.4,1.5-0.6,2.2-0.6c1,0,1.8,0.4,2.3,1.1c0.6,0.7,0.8,1.6,0.8,2.7c0,1.7-0.7,3.1-2.2,4.2
			c-1.6,1.2-3.7,2.1-6.3,2.9c-2.6,0.8-5.3,1.1-8.1,1.1c-4.4,0-8.3-0.9-11.5-2.6c-3.3-1.7-5.8-4.2-7.6-7.4c-1.8-3.2-2.7-6.9-2.7-11.1
			c0-4.6,0.9-8.7,2.7-12.3c1.8-3.6,4.4-6.4,7.7-8.5c3.3-2,7-3,11.3-3c6,0,10.6,1.8,13.9,5.4c3.3,3.6,4.9,8.7,4.9,15.3
			C396.3,120.1,396,121.1,395.3,121.7z M366.9,116.9H387c0.1-3.6-0.7-6.3-2.3-8.1c-1.6-1.8-3.8-2.8-6.7-2.8
			C371.8,105.9,368.1,109.6,366.9,116.9z"/>
	</g>
</g>
<g>
	<linearGradient id="SVGID_1_" gradientUnits="userSpaceOnUse" x1="194.1155" y1="120.595" x2="213.1683" y2="120.595">
		<stop  offset="4.078526e-02" style="stop-color:#4A82C3"/>
		<stop  offset="0.9995" style="stop-color:#65C0D1"/>
	</linearGradient>
	<path class="st1" d="M195.5,124.1c-0.9-0.8-1.4-2-1.4-3.5c0-1.5,0.5-2.7,1.4-3.5s2.3-1.3,4.2-1.3h7.9c1.9,0,3.3,0.4,4.2,1.3
		s1.4,2,1.4,3.5c0,1.5-0.5,2.6-1.4,3.5s-2.3,1.3-4.2,1.3h-7.9C197.8,125.4,196.4,125,195.5,124.1z"/>
</g>
<g>
	
		<linearGradient id="SVGID_2_" gradientUnits="userSpaceOnUse" x1="1.8753" y1="45.3758" x2="426.3322" y2="45.3758" gradientTransform="matrix(0.9998 1.806847e-02 -1.806847e-02 0.9998 0.856 -3.7346)">
		<stop  offset="4.078526e-02" style="stop-color:#4A82C3"/>
		<stop  offset="0.9995" style="stop-color:#65C0D1"/>
	</linearGradient>
	<path class="st2" d="M426.5,36.6l-105.6-5.9c-0.9-0.4-1.9-0.8-2.8-1.3l71.5-3.2L298,21.1c-21.4-8.2-44-14.5-63.6-15.7
		c-60-1.1-103.6,32.9-114,41.5c-2.4-0.3-4.8-0.6-7.2-0.8c-3.6-0.3-7.1-0.7-10.7-0.8c-3.6-0.2-7.1-0.3-10.7-0.2
		c-3.6,0-7.1,0.2-10.7,0.4c-3.6,0.2-7.1,0.6-10.6,0.9c-3.5,0.5-7.1,0.8-10.6,1.5c-3.5,0.5-7,1.3-10.4,2c-3.4,0.9-6.9,1.6-10.3,2.7
		c-3.4,0.9-6.8,2.1-10.1,3.2c-3.3,1.2-27.5,13-28,26.4c1.7-6.8,25-29.4,95.3-26.7c46.1,1.7,120,2.9,120,2.9L144,49
		c19.3-11.3,53.1-26.9,89.6-24.5c80.2,5.4,136.1,35.8,141.2,37.6l0.8,0.3l0.5,0c-4.2-4.3-17.5-12.8-35.2-22.1L426.5,36.6z"/>
</g>
<text transform="matrix(1 0 0 1 23.016 172.4375)" class="st0 st3 st4">Таможенное оформление авто</text>
</svg>
