<?xml version="1.0" encoding="utf-8"?>
<!-- Generator: Adobe Illustrator 21.0.0, SVG Export Plug-In . SVG Version: 6.00 Build 0)  -->
<svg version="1.1" id="Слой_1" xmlns="http://www.w3.org/2000/svg" xmlns:xlink="http://www.w3.org/1999/xlink" x="0px" y="0px"
	 viewBox="0 0 64 70.3" style="enable-background:new 0 0 64 70.3;" xml:space="preserve">
<path d="M17,61c0,0.6,0.4,1,1,1h28c0.6,0,1-0.4,1-1V47.1c0-5.4-3.9-10-9.3-11c4.5-3.2,5.6-9.4,2.4-13.9s-9.4-5.6-13.9-2.4
	s-5.6,9.4-2.4,13.9c0.7,0.9,1.5,1.8,2.4,2.4c-5.3,0.9-9.2,5.5-9.3,11V61z M24,28c0-4.4,3.6-8,8-8s8,3.6,8,8s-3.6,8-8,8
	C27.6,36,24,32.4,24,28z M19,47.1c0-5,4.1-9.1,9.1-9.1h7.7c5,0,9.1,4.1,9.1,9.1V60H19V47.1z"/>
<rect x="31" y="8" width="2" height="4"/>
<rect x="41" y="11.6" transform="matrix(0.7071 -0.7071 0.7071 0.7071 3.6948 34.0921)" width="4" height="2"/>
<rect x="53" y="60" width="4" height="2"/>
<rect x="53" y="50" width="4" height="2"/>
<rect x="53" y="40" width="4" height="2"/>
<rect x="52" y="30" transform="matrix(0.9486 -0.3164 0.3164 0.9486 -7.034 18.6767)" width="4" height="2"/>
<rect x="48.9" y="19.6" transform="matrix(0.9486 -0.3164 0.3164 0.9486 -3.9129 17.1625)" width="4" height="2"/>
<rect x="20" y="10.6" transform="matrix(0.7072 -0.707 0.707 0.7072 -2.7489 18.5337)" width="2" height="4"/>
<rect x="7" y="60" width="4" height="2"/>
<rect x="7" y="50" width="4" height="2"/>
<rect x="7" y="40" width="4" height="2"/>
<rect x="9" y="29" transform="matrix(0.3162 -0.9487 0.9487 0.3162 -22.5711 30.6864)" width="2" height="4"/>
<rect x="12.1" y="18.6" transform="matrix(0.3163 -0.9487 0.9487 0.3163 -10.6154 26.5365)" width="2" height="4"/>
<path d="M58,11c0-1.7,1.3-3,3-3c0.6,0,1-0.4,1-1s-0.4-1-1-1c-1.7,0-3-1.3-3-3c0-0.6-0.4-1-1-1s-1,0.4-1,1c0,1.7-1.3,3-3,3
	c-0.6,0-1,0.4-1,1s0.4,1,1,1c1.7,0,3,1.3,3,3c0,0.6,0.4,1,1,1S58,11.6,58,11z M56,7c0.4-0.3,0.7-0.6,1-1c0.3,0.4,0.6,0.7,1,1
	c-0.4,0.3-0.7,0.6-1,1C56.7,7.6,56.4,7.3,56,7z"/>
<path d="M3,8c1.7,0,3,1.3,3,3c0,0.6,0.4,1,1,1s1-0.4,1-1c0-1.7,1.3-3,3-3c0.6,0,1-0.4,1-1s-0.4-1-1-1C9.3,6,8,4.7,8,3
	c0-0.6-0.4-1-1-1S6,2.4,6,3c0,1.7-1.3,3-3,3C2.4,6,2,6.4,2,7S2.4,8,3,8z M7,6c0.3,0.4,0.6,0.7,1,1C7.6,7.3,7.3,7.6,7,8
	C6.7,7.6,6.4,7.3,6,7C6.4,6.7,6.7,6.4,7,6z"/>
</svg>
