<?xml version="1.0" encoding="utf-8"?>
<!-- Generator: Adobe Illustrator 21.0.0, SVG Export Plug-In . SVG Version: 6.00 Build 0)  -->
<svg version="1.1" id="Слой_1" xmlns="http://www.w3.org/2000/svg" xmlns:xlink="http://www.w3.org/1999/xlink" x="0px" y="0px"
	 viewBox="0 0 147 147.7" style="enable-background:new 0 0 147 147.7;" xml:space="preserve">
<style type="text/css">
	.st0{opacity:0.5;}
	.st1{fill:#FFFFFF;}
</style>
<rect x="-1" class="st0" width="147" height="147"/>
<g>
	<polygon class="st1" points="113,105.6 89.1,81.7 82,88.8 105.9,112.7 95.4,112.7 95.4,122.7 123,122.7 123,95.1 113,95.1 	"/>
	<polygon class="st1" points="50.6,32.7 50.6,22.7 23,22.7 23,50.3 33,50.3 33,39.8 56.9,63.7 64,56.6 40.1,32.7 	"/>
	<polygon class="st1" points="95.4,22.7 95.4,32.7 105.9,32.7 82,56.6 89.1,63.7 113,39.8 113,50.3 123,50.3 123,22.7 	"/>
	<polygon class="st1" points="56.9,81.7 33,105.6 33,95.1 23,95.1 23,122.7 50.6,122.7 50.6,112.7 40.1,112.7 64,88.8 	"/>
</g>
</svg>
